<?xml version="1.0" encoding="UTF-8"?>
<svg id="Layer_11" data-name="Layer 11" xmlns="http://www.w3.org/2000/svg" xmlns:xlink="http://www.w3.org/1999/xlink" viewBox="0 0 512 512">
  <defs>
    <style>
      .cls-1 {
        fill: url(#radial-gradient-2);
      }

      .cls-2 {
        fill: url(#linear-gradient-3);
      }

      .cls-3 {
        fill: url(#linear-gradient-2);
      }

      .cls-4 {
        fill: url(#radial-gradient);
      }

      .cls-5 {
        fill: url(#linear-gradient);
      }

      .cls-6 {
        fill: #fff;
      }
    </style>
    <radialGradient id="radial-gradient" cx="256" cy="256" fx="256" fy="256" r="250.6" gradientTransform="translate(30.24 -27.03) rotate(6.42)" gradientUnits="userSpaceOnUse">
      <stop offset=".35" stop-color="#52174e"/>
      <stop offset=".56" stop-color="#4e164b"/>
      <stop offset=".73" stop-color="#441445"/>
      <stop offset=".89" stop-color="#33113a"/>
      <stop offset="1" stop-color="#230e31"/>
    </radialGradient>
    <radialGradient id="radial-gradient-2" cx="79.7" cy="182.55" fx="79.7" fy="182.55" r="193.21" gradientUnits="userSpaceOnUse">
      <stop offset=".17" stop-color="#1e75b8"/>
      <stop offset=".36" stop-color="#2078b7"/>
      <stop offset=".55" stop-color="#2984b5"/>
      <stop offset=".74" stop-color="#3898b2"/>
      <stop offset=".93" stop-color="#4db4ad"/>
      <stop offset="1" stop-color="#57c1ac"/>
    </radialGradient>
    <linearGradient id="linear-gradient" x1="109.04" y1="164.58" x2="353.56" y2="164.58" gradientUnits="userSpaceOnUse">
      <stop offset="0" stop-color="#57c1ac"/>
      <stop offset=".07" stop-color="#4db4ad"/>
      <stop offset=".26" stop-color="#3898b2"/>
      <stop offset=".45" stop-color="#2984b5"/>
      <stop offset=".64" stop-color="#2078b7"/>
      <stop offset=".83" stop-color="#1e75b8"/>
    </linearGradient>
    <linearGradient id="linear-gradient-2" x1="-4961.78" y1="-1563.19" x2="-4787.02" y2="-1563.19" gradientTransform="translate(-4523.07 -1294.92) rotate(-180)" gradientUnits="userSpaceOnUse">
      <stop offset="0" stop-color="#058945"/>
      <stop offset=".32" stop-color="#319c49"/>
      <stop offset="1" stop-color="#9bcc55"/>
    </linearGradient>
    <linearGradient id="linear-gradient-3" x1="-4926.03" y1="-1642.51" x2="-4681.51" y2="-1642.51" gradientTransform="translate(-4523.07 -1294.92) rotate(-180)" gradientUnits="userSpaceOnUse">
      <stop offset="0" stop-color="#9ccc53"/>
      <stop offset=".01" stop-color="#98ca52"/>
      <stop offset=".15" stop-color="#73b851"/>
      <stop offset=".29" stop-color="#55a950"/>
      <stop offset=".44" stop-color="#3d9e4f"/>
      <stop offset=".6" stop-color="#2d964e"/>
      <stop offset=".78" stop-color="#23914e"/>
      <stop offset="1" stop-color="#20904e"/>
    </linearGradient>
  </defs>
  <path class="cls-4" d="M46.11,27.56h419.78c10.24,0,18.55,8.31,18.55,18.55v419.78c0,10.24-8.31,18.55-18.55,18.55H46.11c-10.24,0-18.55-8.31-18.55-18.55V46.11c0-10.24,8.31-18.55,18.55-18.55Z" transform="translate(-27.03 30.24) rotate(-6.42)"/>
  <g>
    <g>
      <path class="cls-1" d="M188.71,321.09c13.57,13.57,35.58,13.57,49.15,0h0c13.57-13.57,13.57-35.58,0-49.15l-105.25-105.25c-13.57-13.57-35.58-13.57-49.15,0h0c-13.57,13.57-13.57,35.58,0,49.15l62.26,62.1,42.99,43.14Z"/>
      <path class="cls-5" d="M237.87,61.38c-13.57-13.57-35.58-13.57-49.15,0l-105.24,105.25c-13.29,13.29-14.12,34.09-1.39,47.71l.54.57.7.7c.05.05.1.11.15.16.05.06.12.1.17.16l62.08,62.01c-33.43-33.43,11.45-86.72,11.45-86.72h0s80.7-80.69,80.7-80.69c13.57-13.57,13.57-35.58,0-49.15Z"/>
    </g>
    <g>
      <path class="cls-3" d="M323.29,191.08c-13.58-13.57-35.58-13.57-49.16,0h0c-13.57,13.57-13.57,35.58,0,49.15l105.25,105.25c13.57,13.57,35.58,13.57,49.15,0h0c13.58-13.57,13.57-35.58,0-49.15l-62.26-62.1-42.99-43.14Z"/>
      <path class="cls-2" d="M274.13,450.78c13.57,13.57,35.58,13.57,49.16,0l105.24-105.24c13.29-13.29,14.12-34.09,1.39-47.71l-.54-.58-.7-.7c-.05-.05-.09-.11-.15-.16-.05-.06-.12-.1-.18-.16l-62.08-62.01c33.43,33.43-11.45,86.72-11.45,86.72h0s-80.69,80.69-80.69,80.69c-13.57,13.57-13.57,35.58,0,49.15Z"/>
    </g>
    <path class="cls-6" d="M234.48,436.92c-5.55,17.74-24.42,27.62-42.16,22.07h0c-17.73-5.55-27.62-24.42-22.07-42.16l108.86-342.18c5.55-17.74,24.43-27.62,42.17-22.07h0c17.73,5.54,27.62,24.42,22.07,42.16l-108.87,342.18Z"/>
  </g>
</svg>